HIERARCHY
ROOT Hips
{
  OFFSET 5.72205e-005 65.662 3.42586
  CHANNELS 6 Xposition Yposition Zposition Zrotation Xrotation Yrotation
  JOINT Chest
  {
    OFFSET 0 8.7983 -4.7612
    CHANNELS 3 Zrotation Xrotation Yrotation
    JOINT Chest2
    {
      OFFSET 0 8.0291 0.4195
      CHANNELS 3 Zrotation Xrotation Yrotation
      JOINT Chest3
      {
        OFFSET 0 9.9351 -2.2114
        CHANNELS 3 Zrotation Xrotation Yrotation
        JOINT Neck
        {
          OFFSET 0 22.3885 -0.4656
          CHANNELS 3 Zrotation Xrotation Yrotation
          JOINT Head
          {
            OFFSET -0.0001 12.643 3.4389
            CHANNELS 3 Zrotation Xrotation Yrotation
            End Site
            {
              OFFSET 0.0001 17.6655 0.5274
            }
          }
        }
        JOINT LeftCollar
        {
          OFFSET 2.2603 21.606 7.4023
          CHANNELS 3 Zrotation Xrotation Yrotation
          JOINT LeftShoulder
          {
            OFFSET 13.5163 -1.1332 -5.0146
            CHANNELS 3 Zrotation Xrotation Yrotation
            JOINT LeftElbow
            {
              OFFSET -0.0995 -28.05 -0.2431
              CHANNELS 3 Zrotation Xrotation Yrotation
              JOINT LeftWrist
              {
                OFFSET 0.0679 -23.3996 -0.1402
                CHANNELS 3 Zrotation Xrotation Yrotation
                JOINT LeftFinger1
                {
                  OFFSET 0.7932 -9.069 2.5189
                  CHANNELS 3 Zrotation Xrotation Yrotation
                  JOINT LeftFinger11
                  {
                    OFFSET -0.8272 -3.3923 0.5977
                    CHANNELS 3 Zrotation Xrotation Yrotation
                    JOINT LeftFinger12
                    {
                      OFFSET -0.5649 -2.3158 0.4082
                      CHANNELS 3 Zrotation Xrotation Yrotation
                      End Site
                      {
                        OFFSET -0.4919 -1.6479 0.2673
                      }
                    }
                  }
                }
                JOINT LeftFinger2
                {
                  OFFSET 0.9159 -9.2044 0.2193
                  CHANNELS 3 Zrotation Xrotation Yrotation
                  JOINT LeftFinger21
                  {
                    OFFSET 0.0117 -4.1944 -0.0248
                    CHANNELS 3 Zrotation Xrotation Yrotation
                    JOINT LeftFinger22
                    {
                      OFFSET 0.0071 -2.3249 -0.0142
                      CHANNELS 3 Zrotation Xrotation Yrotation
                      End Site
                      {
                        OFFSET -0.1475 -2.0882 0.0028
                      }
                    }
                  }
                }
                JOINT LeftFinger3
                {
                  OFFSET 0.6113 -8.7231 -2.0637
                  CHANNELS 3 Zrotation Xrotation Yrotation
                  JOINT LeftFinger31
                  {
                    OFFSET -0.1927 -3.8059 -0.2383
                    CHANNELS 3 Zrotation Xrotation Yrotation
                    JOINT LeftFinger32
                    {
                      OFFSET -0.1091 -2.1688 -0.1362
                      CHANNELS 3 Zrotation Xrotation Yrotation
                      End Site
                      {
                        OFFSET -0.2358 -1.9176 -0.0906
                      }
                    }
                  }
                }
                JOINT LeftFinger4
                {
                  OFFSET -0.6151 -8.0947 -3.5641
                  CHANNELS 3 Zrotation Xrotation Yrotation
                  JOINT LeftFinger41
                  {
                    OFFSET -0.4882 -2.341 -0.6462
                    CHANNELS 3 Zrotation Xrotation Yrotation
                    JOINT LeftFinger42
                    {
                      OFFSET -0.3575 -1.7167 -0.4742
                      CHANNELS 3 Zrotation Xrotation Yrotation
                      End Site
                      {
                        OFFSET -0.4187 -1.5237 -0.3496
                      }
                    }
                  }
                }
                JOINT LeftFinger0
                {
                  OFFSET -1.42 -1.8761 1.4223
                  CHANNELS 3 Zrotation Xrotation Yrotation
                  JOINT LeftFinger01
                  {
                    OFFSET -1.1471 -3.4929 2.6334
                    CHANNELS 3 Zrotation Xrotation Yrotation
                    JOINT LeftFinger02
                    {
                      OFFSET -0.823 -2.3 1.6571
                      CHANNELS 3 Zrotation Xrotation Yrotation
                      End Site
                      {
                        OFFSET -0.5822 -1.6914 1.1582
                      }
                    }
                  }
                }
              }
            }
          }
        }
        JOINT RightCollar
        {
          OFFSET -2.2603 21.606 7.4023
          CHANNELS 3 Zrotation Xrotation Yrotation
          JOINT RightShoulder
          {
            OFFSET -13.5187 -1.1334 -5.0155
            CHANNELS 3 Zrotation Xrotation Yrotation
            JOINT RightElbow
            {
              OFFSET 0.0994 -28.0499 -0.2431
              CHANNELS 3 Zrotation Xrotation Yrotation
              JOINT RightWrist
              {
                OFFSET -0.0679 -23.3996 -0.1402
                CHANNELS 3 Zrotation Xrotation Yrotation
                JOINT RightFinger1
                {
                  OFFSET -0.7932 -9.0691 2.5189
                  CHANNELS 3 Zrotation Xrotation Yrotation
                  JOINT RightFinger11
                  {
                    OFFSET 0.8272 -3.3923 0.5977
                    CHANNELS 3 Zrotation Xrotation Yrotation
                    JOINT RightFinger12
                    {
                      OFFSET 0.565 -2.3158 0.4082
                      CHANNELS 3 Zrotation Xrotation Yrotation
                      End Site
                      {
                        OFFSET 0.4919 -1.6479 0.2673
                      }
                    }
                  }
                }
                JOINT RightFinger2
                {
                  OFFSET -0.916 -9.2044 0.2193
                  CHANNELS 3 Zrotation Xrotation Yrotation
                  JOINT RightFinger21
                  {
                    OFFSET -0.0117 -4.1944 -0.0248
                    CHANNELS 3 Zrotation Xrotation Yrotation
                    JOINT RightFinger22
                    {
                      OFFSET -0.0071 -2.3249 -0.0142
                      CHANNELS 3 Zrotation Xrotation Yrotation
                      End Site
                      {
                        OFFSET 0.1475 -2.0882 0.0028
                      }
                    }
                  }
                }
                JOINT RightFinger3
                {
                  OFFSET -0.6113 -8.7231 -2.0637
                  CHANNELS 3 Zrotation Xrotation Yrotation
                  JOINT RightFinger31
                  {
                    OFFSET 0.1927 -3.8059 -0.2383
                    CHANNELS 3 Zrotation Xrotation Yrotation
                    JOINT RightFinger32
                    {
                      OFFSET 0.1091 -2.1688 -0.1362
                      CHANNELS 3 Zrotation Xrotation Yrotation
                      End Site
                      {
                        OFFSET 0.2358 -1.9176 -0.0906
                      }
                    }
                  }
                }
                JOINT RightFinger4
                {
                  OFFSET 0.6151 -8.0947 -3.564
                  CHANNELS 3 Zrotation Xrotation Yrotation
                  JOINT RightFinger41
                  {
                    OFFSET 0.4882 -2.341 -0.6462
                    CHANNELS 3 Zrotation Xrotation Yrotation
                    JOINT RightFinger42
                    {
                      OFFSET 0.3574 -1.7166 -0.4742
                      CHANNELS 3 Zrotation Xrotation Yrotation
                      End Site
                      {
                        OFFSET 0.4187 -1.5237 -0.3496
                      }
                    }
                  }
                }
                JOINT RightFinger0
                {
                  OFFSET 1.4199 -1.8761 1.4221
                  CHANNELS 3 Zrotation Xrotation Yrotation
                  JOINT RightFinger01
                  {
                    OFFSET 1.1472 -3.4929 2.6336
                    CHANNELS 3 Zrotation Xrotation Yrotation
                    JOINT RightFinger02
                    {
                      OFFSET 0.8229 -2.3 1.6571
                      CHANNELS 3 Zrotation Xrotation Yrotation
                      End Site
                      {
                        OFFSET 0.5822 -1.6914 1.1582
                      }
                    }
                  }
                }
              }
            }
          }
        }
      }
    }
  }
  JOINT RightHip
  {
    OFFSET -9.412 3.9771 -0.7758
    CHANNELS 3 Zrotation Xrotation Yrotation
    JOINT RightKnee
    {
      OFFSET -0.7531 -40.938 0
      CHANNELS 3 Zrotation Xrotation Yrotation
      JOINT RightAnkle
      {
        OFFSET 0 -40.1986 0
        CHANNELS 3 Zrotation Xrotation Yrotation
        JOINT RightToe
        {
          OFFSET 0 -4.4182 9.239
          CHANNELS 3 Zrotation Xrotation Yrotation
          End Site
          {
            OFFSET 0 0 6.1981
          }
        }
      }
    }
  }
  JOINT LeftHip
  {
    OFFSET 9.4119 3.9773 -0.7758
    CHANNELS 3 Zrotation Xrotation Yrotation
    JOINT LeftKnee
    {
      OFFSET 0.7532 -40.9383 0
      CHANNELS 3 Zrotation Xrotation Yrotation
      JOINT LeftAnkle
      {
        OFFSET 0 -40.1986 0
        CHANNELS 3 Zrotation Xrotation Yrotation
        JOINT LeftToe
        {
          OFFSET 0 -4.4182 9.239
          CHANNELS 3 Zrotation Xrotation Yrotation
          End Site
          {
            OFFSET 0 0 6.1981
          }
        }
      }
    }
  }
}
MOTION
Frames:	4
Frame Time:	0.0333333
5.72205e-005 65.662 3.42586 0 0 -0 0 0 -0 0 0 -0 0 0 -0 0 0 -0 0 0 -0 0 0 -12.5014 88.1196 14.2451 10.6914 -0.00160068 -0.00239207 0.000740045 -8.4365e-005 7.00714e-005 -9.52055e-007 9.93923e-017 -1.98785e-016 -1.59028e-015 9.93923e-017 -5.96354e-016 -1.59028e-015 -9.93923e-017 -5.96354e-016 -1.59028e-015 9.93923e-017 -1.98785e-016 -1.59028e-015 -0.0128176 0.00232552 8.52707e-005 9.93923e-017 5.96354e-016 -0 9.93923e-017 -1.98785e-016 -1.59028e-015 -0.0160551 0.00299681 0.000857156 -2.48481e-016 0 3.18055e-015 9.93923e-017 -1.98785e-016 -1.59028e-015 -0.0125865 0.0031206 0.00282719 0 1.98785e-016 -0 9.93923e-017 -1.98785e-016 -1.59028e-015 9.93923e-017 -5.96354e-016 -1.59028e-015 -9.93923e-017 -5.96354e-016 -1.59028e-015 -0.865644 0.16582 7.03859 -88.0329 10.2057 -10.5567 0.0015593 -0.00248883 -0.000788628 7.87605e-005 4.10553e-005 1.24965e-005 -3.97569e-016 -7.95139e-016 3.18055e-015 -1.98785e-016 -3.97569e-016 3.18055e-015 -1.98785e-016 0 3.18055e-015 -3.97569e-016 -7.95139e-016 3.18055e-015 0.0129473 0.00231697 -8.70038e-005 9.93923e-017 -7.95139e-016 1.59028e-015 -3.97569e-016 -7.95139e-016 3.18055e-015 0.0163314 0.00303369 -0.000872333 3.97569e-016 7.95139e-016 -3.18055e-015 -3.97569e-016 -7.95139e-016 3.18055e-015 0.0145763 0.00367772 -0.00326275 9.93923e-017 -3.97569e-016 -0 -3.97569e-016 -7.95139e-016 3.18055e-015 -1.98785e-016 -3.97569e-016 3.18055e-015 -1.98785e-016 0 3.18055e-015 3.42482 1.32465 -0.0626183 0.000117508 0.717283 0.000978199 -3.4257 -2.04197 -0.0604716 6.47761e-025 0 -0 -3.42483 1.34017 0.0627307 -0.000193936 0.682302 -0.0013703 3.42574 -2.02253 0.0595886 -8.45714e-024 0 -7.40531e-025 
1.49187 65.0688 -13.5798 -0 0 1.09815e-008 -0.226654 7.1791 -0.377689 -0.410057 14.3595 -0.735261 -0.410057 14.3596 -0.735263 -3.31537e-007 0.215061 -1.00706e-007 5.82175e-007 0.152132 -4.26022e-007 -9.96492 -1.5519 -34.4413 35.4332 -3.49416 25.621 -13.586 -41.0398 -13.7848 12.4058 0.236425 5.81441 -1.05287e-005 3.25701e-006 6.74983e-006 -7.95139e-016 3.18055e-015 -0 -2.38542e-015 0 -4.77083e-015 -1.05287e-005 3.25701e-006 6.74983e-006 -0.0128019 0.00232281 8.17418e-005 -1.59028e-015 -3.18055e-015 -1.59028e-015 -1.05287e-005 3.25701e-006 6.74983e-006 -0.0160052 0.00298767 0.000851911 1.59028e-015 0 3.18055e-015 -1.05287e-005 3.25701e-006 6.74983e-006 -0.0125951 0.00312337 0.00282693 -8.8773e-007 1.04251e-006 -1.40223e-006 -1.05287e-005 3.25701e-006 6.74983e-006 -7.95139e-016 3.18055e-015 -0 -2.38542e-015 0 -4.77083e-015 9.09612 -1.72225 28.9489 -34.6939 -5.32172 -21.2459 13.0659 -41.2933 13.0328 -12.2708 0.387449 -6.07847 -8.50266e-007 -1.14366e-006 -1.44847e-006 -7.589e-006 7.84975e-006 -5.63873e-006 -2.38542e-015 1.59028e-014 1.59028e-015 -8.50266e-007 -1.14366e-006 -1.44847e-006 0.0129956 0.00232723 -8.69963e-005 -7.95139e-016 -3.18055e-015 1.59028e-015 -8.50266e-007 -1.14366e-006 -1.44847e-006 0.0163438 0.00304767 -0.000878212 2.26377e-007 -1.87844e-006 -1.78285e-006 -8.50266e-007 -1.14366e-006 -1.44847e-006 0.0145756 0.00368245 -0.00326536 6.36111e-015 0 3.18055e-015 -8.50266e-007 -1.14366e-006 -1.44847e-006 -7.589e-006 7.84975e-006 -5.63873e-006 -2.38542e-015 1.59028e-014 1.59028e-015 -2.83595 4.50351 -3.15298 1.60482 25.7311 -0.168762 8.69994 -15.876 -12.9493 -6.32111e-007 -2.62044e-007 -1.83288e-006 6.27635 4.50384 7.48393 -1.88567 25.6495 0.376272 -10.9339 -15.2211 7.23443 2.38542e-015 1.59028e-015 -6.36111e-015 
1.49231 64.9881 -14.1931 1.03464e-007 1.27052 1.85135e-007 -0.225346 6.7298 -0.379378 -0.409743 13.461 -0.739629 -0.409744 13.461 -0.739632 -9.35052e-007 0.274653 -1.27307e-006 5.11419e-007 0.193827 2.81605e-009 -9.9016 -0.775669 -33.9582 35.18 -3.5365 25.5783 -13.5859 -41.0399 -13.7848 12.3525 0.288159 5.50999 1.59028e-015 6.36111e-015 7.95139e-015 8.85376e-007 5.39169e-007 1.40377e-006 7.95139e-016 -3.18055e-015 -3.18055e-015 1.59028e-015 6.36111e-015 7.95139e-015 -0.0128101 0.00232571 8.92624e-005 -3.97569e-015 -6.36111e-015 -3.18055e-015 1.59028e-015 6.36111e-015 7.95139e-015 -0.0160319 0.0029885 0.000858222 1.59028e-015 -3.18055e-015 -0 1.59028e-015 6.36111e-015 7.95139e-015 -0.0125665 0.00312614 0.0028263 0 0 -3.18055e-015 1.59028e-015 6.36111e-015 7.95139e-015 8.85376e-007 5.39169e-007 1.40377e-006 7.95139e-016 -3.18055e-015 -3.18055e-015 9.00002 -0.947359 28.4492 -34.4453 -5.34489 -21.1878 13.0659 -41.2934 13.0329 -12.2003 0.428729 -5.76665 -8.47506e-007 -1.21591e-006 -1.45007e-006 7.95139e-016 -6.36111e-015 -1.59028e-015 2.38542e-015 -3.18055e-015 -3.18055e-015 -8.47506e-007 -1.21591e-006 -1.45007e-006 0.012928 0.00231961 -8.37287e-005 -7.15625e-015 3.18055e-015 -3.18055e-015 -8.47506e-007 -1.21591e-006 -1.45007e-006 0.0163752 0.0030418 -0.000871739 -8.47341e-007 2.31166e-007 -1.45012e-006 -8.47506e-007 -1.21591e-006 -1.45007e-006 0.0145654 0.00367572 -0.00326054 -7.95139e-016 -1.27222e-014 1.59028e-015 -8.47506e-007 -1.21591e-006 -1.45007e-006 7.95139e-016 -6.36111e-015 -1.59028e-015 2.38542e-015 -3.18055e-015 -3.18055e-015 -2.79304 2.47531 -3.19908 1.44457 26.55 -0.110243 8.69564 -15.9004 -12.9612 1.86425e-006 6.77664e-007 2.17193e-006 6.27162 2.47873 7.56097 -1.74829 26.4643 0.329887 -10.9278 -15.2437 7.24613 6.19335e-007 -1.99116e-006 1.59962e-007 
1.49272 64.9109 -14.8079 -1.02053e-007 2.54358 -3.67756e-007 -0.22394 6.27456 -0.380931 -0.409332 12.5505 -0.743773 -0.409333 12.5505 -0.743775 -5.01726e-007 0.334206 -4.08725e-007 -4.08445e-007 0.235538 2.15431e-007 -9.84477 0.00183243 -33.4754 34.9269 -3.57879 25.5354 -13.5859 -41.0397 -13.7847 12.2994 0.340164 5.20559 -1.5736e-007 2.865e-007 -1.80142e-006 -6.37133e-006 5.00504e-006 7.25118e-006 2.38542e-015 1.90833e-014 6.36111e-015 -1.5736e-007 2.865e-007 -1.80142e-006 -0.0127994 0.00231664 9.1924e-005 7.26216e-007 2.359e-007 -3.96331e-007 -1.5736e-007 2.865e-007 -1.80142e-006 -0.016048 0.00300454 0.000864788 1.59028e-015 -3.18055e-015 1.59028e-015 -1.5736e-007 2.865e-007 -1.80142e-006 -0.0125708 0.00311778 0.00282818 -7.95139e-016 0 3.18055e-015 -1.5736e-007 2.865e-007 -1.80142e-006 -6.37133e-006 5.00504e-006 7.25118e-006 2.38542e-015 1.90833e-014 6.36111e-015 8.9106 -0.170884 27.9503 -34.1969 -5.36807 -21.1295 13.0659 -41.2932 13.0328 -12.13 0.470398 -5.45481 -3.17976e-006 -3.0423e-006 2.41672e-006 -4.29146e-006 3.91848e-006 -2.41745e-006 -3.97569e-015 3.18055e-015 -6.36111e-015 -3.17976e-006 -3.0423e-006 2.41672e-006 0.012932 0.00231187 -8.9417e-005 4.15843e-006 -2.40402e-006 7.26209e-007 -3.17976e-006 -3.0423e-006 2.41672e-006 0.0163451 0.00303999 -0.000876691 -8.45234e-007 -3.20027e-006 -1.4514e-006 -3.17976e-006 -3.0423e-006 2.41672e-006 0.0145495 0.00367507 -0.00325885 -8.45227e-007 2.31269e-007 -1.45143e-006 -3.17976e-006 -3.0423e-006 2.41672e-006 -4.29146e-006 3.91848e-006 -2.41745e-006 -3.97569e-015 3.18055e-015 -6.36111e-015 -2.74875 0.434497 -3.24448 1.27777 27.3711 -0.0473502 8.69306 -15.9248 -12.9732 -6.04917e-007 -1.8385e-007 1.49601e-006 6.26683 0.443194 7.63877 -1.60516 27.2788 0.27971 -10.9234 -15.266 7.25789 5.82743e-007 1.57564e-006 -1.5055e-006 
